{
  "accessors": [
    {
      "bufferView": 2,
      "componentType": 5126,
      "count": 65532,
      "max": [
        15.074563026428223,
        -0.3071575164794922,
        17.072925567626953
      ],
      "min": [
        -14.485597610473633,
        -21.30884552001953,
        -13.24966049194336
      ],
      "type": "VEC3"
    },
    {
      "bufferView": 2,
      "byteOffset": 786384,
      "componentType": 5126,
      "count": 65532,
      "max": [
        0.9999946355819702,
        0.9999948143959045,
        0.9999748468399048
      ],
      "min": [
        -0.999932587146759,
        -0.9999998807907104,
        -0.9999364614486694
      ],
      "type": "VEC3"
    },
    {
      "bufferView": 1,
      "componentType": 5126,
      "count": 65532,
      "max": [
        0.9997559785842896,
        0.6088410019874573
      ],
      "min": [
        0.00024399999529123306,
        0.00024399999529123306
      ],
      "type": "VEC2"
    },
    {
      "bufferView": 0,
      "componentType": 5125,
      "count": 283122,
      "type": "SCALAR"
    },
    {
      "bufferView": 2,
      "byteOffset": 1572768,
      "componentType": 5126,
      "count": 65532,
      "max": [
        15.86600399017334,
        -0.3221321105957031,
        12.678346633911133
      ],
      "min": [
        -14.449281692504883,
        -15.057879447937012,
        -13.568523406982422
      ],
      "type": "VEC3"
    },
    {
      "bufferView": 2,
      "byteOffset": 2359152,
      "componentType": 5126,
      "count": 65532,
      "max": [
        0.9998900890350342,
        0.9999464750289917,
        0.9999833106994629
      ],
      "min": [
        -0.9999977350234985,
        -0.9999998807907104,
        -0.9999924898147583
      ],
      "type": "VEC3"
    },
    {
      "bufferView": 1,
      "byteOffset": 524256,
      "componentType": 5126,
      "count": 65532,
      "max": [
        0.9997559785842896,
        0.6481930017471313
      ],
      "min": [
        0.00024399999529123306,
        0.00024399999529123306
      ],
      "type": "VEC2"
    },
    {
      "bufferView": 0,
      "byteOffset": 1132488,
      "componentType": 5125,
      "count": 264012,
      "type": "SCALAR"
    },
    {
      "bufferView": 2,
      "byteOffset": 3145536,
      "componentType": 5126,
      "count": 65534,
      "max": [
        16.096935272216797,
        -0.3726062774658203,
        9.943180084228516
      ],
      "min": [
        -11.986736297607422,
        -15.498557090759277,
        -13.593559265136719
      ],
      "type": "VEC3"
    },
    {
      "bufferView": 2,
      "byteOffset": 3931944,
      "componentType": 5126,
      "count": 65534,
      "max": [
        0.9999961853027344,
        0.999991238117218,
        0.9992762207984924
      ],
      "min": [
        -0.999972939491272,
        -0.9999988675117493,
        -0.9999874234199524
      ],
      "type": "VEC3"
    },
    {
      "bufferView": 1,
      "byteOffset": 1048512,
      "componentType": 5126,
      "count": 65534,
      "max": [
        0.9997559785842896,
        0.6064460277557373
      ],
      "min": [
        0.00024399999529123306,
        0.00024399999529123306
      ],
      "type": "VEC2"
    },
    {
      "bufferView": 0,
      "byteOffset": 2188536,
      "componentType": 5125,
      "count": 259680,
      "type": "SCALAR"
    },
    {
      "bufferView": 2,
      "byteOffset": 4718352,
      "componentType": 5126,
      "count": 65533,
      "max": [
        14.838250160217285,
        -0.30246925354003906,
        19.043066024780273
      ],
      "min": [
        -13.981168746948242,
        -15.672759056091309,
        -13.346145629882813
      ],
      "type": "VEC3"
    },
    {
      "bufferView": 2,
      "byteOffset": 5504748,
      "componentType": 5126,
      "count": 65533,
      "max": [
        0.999794602394104,
        0.9999983906745911,
        0.9999120235443115
      ],
      "min": [
        -0.9999775290489197,
        -1.0,
        -0.9999920129776001
      ],
      "type": "VEC3"
    },
    {
      "bufferView": 1,
      "byteOffset": 1572784,
      "componentType": 5126,
      "count": 65533,
      "max": [
        0.9997559785842896,
        0.5847089886665344
      ],
      "min": [
        0.00024399999529123306,
        0.00024399999529123306
      ],
      "type": "VEC2"
    },
    {
      "bufferView": 0,
      "byteOffset": 3227256,
      "componentType": 5125,
      "count": 240309,
      "type": "SCALAR"
    },
    {
      "bufferView": 2,
      "byteOffset": 6291144,
      "componentType": 5126,
      "count": 1465,
      "max": [
        -4.693749904632568,
        -0.4253082275390625,
        8.632221221923828
      ],
      "min": [
        -14.294482231140137,
        -11.147101402282715,
        -2.8556199073791504
      ],
      "type": "VEC3"
    },
    {
      "bufferView": 2,
      "byteOffset": 6308724,
      "componentType": 5126,
      "count": 1465,
      "max": [
        0.8980197906494141,
        0.9994317293167114,
        0.933279812335968
      ],
      "min": [
        -0.9992316365242004,
        -0.9999752640724182,
        -0.9945711493492126
      ],
      "type": "VEC3"
    },
    {
      "bufferView": 1,
      "byteOffset": 2097048,
      "componentType": 5126,
      "count": 1465,
      "max": [
        0.9997559785842896,
        0.6044750213623047
      ],
      "min": [
        0.0031739999540150166,
        0.0012209999840706587
      ],
      "type": "VEC2"
    },
    {
      "bufferView": 0,
      "byteOffset": 4188492,
      "componentType": 5125,
      "count": 2877,
      "type": "SCALAR"
    }
  ],
  "asset": {
    "extras": {
      "author": "Giravolt (https://sketchfab.com/giravolt)",
      "license": "CC-BY-4.0 (http://creativecommons.org/licenses/by/4.0/)",
      "source": "https://sketchfab.com/3d-models/pietat-museu-frederic-mares-b7e59f69cdd942f7b696a82f105f51c1",
      "title": "Pietat, Museu Frederic Marès"
    },
    "generator": "Sketchfab-11.90.0",
    "version": "2.0"
  },
  "bufferViews": [
    {
      "buffer": 0,
      "byteLength": 4200000,
      "name": "floatBufferViews",
      "target": 34963
    },
    {
      "buffer": 0,
      "byteLength": 2108768,
      "byteOffset": 4200000,
      "byteStride": 8,
      "name": "floatBufferViews",
      "target": 34962
    },
    {
      "buffer": 0,
      "byteLength": 6326304,
      "byteOffset": 6308768,
      "byteStride": 12,
      "name": "floatBufferViews",
      "target": 34962
    }
  ],
  "buffers": [
    {
      "byteLength": 12635072,
      "uri": "scene.bin"
    }
  ],
  "extensionsUsed": [
    "KHR_materials_unlit"
  ],
  "images": [
    {
      "uri": "textures/MFM1383_350M_Material_u1_v1_baseColor.jpeg"
    }
  ],
  "materials": [
    {
      "doubleSided": true,
      "extensions": {
        "KHR_materials_unlit": {}
      },
      "name": "MFM1383_350M_Material_u1_v1",
      "pbrMetallicRoughness": {
        "baseColorTexture": {
          "index": 0
        },
        "metallicFactor": 0.0
      }
    }
  ],
  "meshes": [
    {
      "name": "Object_0",
      "primitives": [
        {
          "attributes": {
            "NORMAL": 1,
            "POSITION": 0,
            "TEXCOORD_0": 2
          },
          "indices": 3,
          "material": 0,
          "mode": 4
        }
      ]
    },
    {
      "name": "Object_1",
      "primitives": [
        {
          "attributes": {
            "NORMAL": 5,
            "POSITION": 4,
            "TEXCOORD_0": 6
          },
          "indices": 7,
          "material": 0,
          "mode": 4
        }
      ]
    },
    {
      "name": "Object_2",
      "primitives": [
        {
          "attributes": {
            "NORMAL": 9,
            "POSITION": 8,
            "TEXCOORD_0": 10
          },
          "indices": 11,
          "material": 0,
          "mode": 4
        }
      ]
    },
    {
      "name": "Object_3",
      "primitives": [
        {
          "attributes": {
            "NORMAL": 13,
            "POSITION": 12,
            "TEXCOORD_0": 14
          },
          "indices": 15,
          "material": 0,
          "mode": 4
        }
      ]
    },
    {
      "name": "Object_4",
      "primitives": [
        {
          "attributes": {
            "NORMAL": 17,
            "POSITION": 16,
            "TEXCOORD_0": 18
          },
          "indices": 19,
          "material": 0,
          "mode": 4
        }
      ]
    }
  ],
  "nodes": [
    {
      "children": [
        1
      ],
      "matrix": [
        1.0,
        0.0,
        0.0,
        0.0,
        0.0,
        -0.9999967217445374,
        -0.0025551156140866116,
        0.0,
        0.0,
        0.0025551156140866116,
        -0.9999967217445374,
        0.0,
        0.0,
        -8.087933540344242,
        13.502808570861815,
        1.0
      ],
      "name": "Sketchfab_model"
    },
    {
      "children": [
        2,
        3,
        4,
        5,
        6
      ],
      "name": "MFM1383_350M.obj.cleaner.materialmerger.gles"
    },
    {
      "mesh": 0,
      "name": "Object_2"
    },
    {
      "mesh": 1,
      "name": "Object_3"
    },
    {
      "mesh": 2,
      "name": "Object_4"
    },
    {
      "mesh": 3,
      "name": "Object_5"
    },
    {
      "mesh": 4,
      "name": "Object_6"
    }
  ],
  "samplers": [
    {
      "magFilter": 9729,
      "minFilter": 9987,
      "wrapS": 10497,
      "wrapT": 10497
    }
  ],
  "scene": 0,
  "scenes": [
    {
      "name": "Sketchfab_Scene",
      "nodes": [
        0
      ]
    }
  ],
  "textures": [
    {
      "sampler": 0,
      "source": 0
    }
  ]
}
